M48
;GenerationSoftware,Autodesk,EAGLE,9.5.1*%
;CreationDate,2019-10-30T21:47:55Z*%
FMAT,2
ICI,OFF
METRIC,TZ,000.000
T9C0.600
T8C0.800
T7C0.813
T6C0.900
T5C1.000
T4C1.016
T3C1.200
T2C1.800
T1C3.200
%
G90
M71
T1
X22000Y33500
X22000Y16500
X78000Y33500
X78000Y16500
T2
X14000Y42000
X61000Y8000
X14000Y25000
X14000Y8000
X61000Y42000
X61000Y25000
T3
X83340Y11810
X98580Y4190
X83340Y45810
X98580Y38190
X83340Y28810
X98580Y21190
T4
X52810Y45990
X50270Y45990
X47730Y45990
X45190Y45990
X45190Y12850
X50270Y12850
X52810Y12850
X45190Y10310
X47730Y10310
X50270Y10310
X47730Y12850
X52810Y43450
X30320Y48250
X52810Y10310
X13830Y48300
X16370Y48300
X25240Y48250
X27780Y48250
X45190Y43450
X47730Y43450
X50270Y43450
T5
X90960Y21190
X96040Y4190
X96040Y11810
X96040Y21190
X90960Y38190
X90960Y45810
X90960Y11810
X96040Y45810
X96040Y38190
X90960Y4190
X90960Y28810
X96040Y28810
T6
X30310Y31550
X30310Y34090
X32850Y34090
X32850Y31550
X27770Y31550
X27770Y34090
X72500Y40850
X72500Y43150
X72500Y45450
X72500Y38550
X72500Y23850
X45200Y40800
X72500Y28450
X72500Y21550
X72500Y6850
X72500Y9150
X72500Y11450
X72500Y4550
X72500Y26150
X50300Y41000
X52800Y40900
X24000Y39000
X36000Y31000
T7
X15070Y19240
X15070Y16700
X15070Y14160
X7450Y14160
X7450Y16700
X7450Y19240
T8
X85880Y9270
X85880Y11810
X2500Y6850
X85880Y6730
X85880Y4190
X2500Y28450
X2500Y11450
X85880Y45810
X85880Y43270
X85880Y40730
X85880Y38190
X2500Y23850
X85880Y21190
X2500Y40850
X2500Y45450
X85880Y28810
X85880Y26270
X85880Y23730
T9
X52800Y23300
X81000Y3000
X42750Y14840
X81000Y20000
X47000Y22000
X38420Y27400
X43440Y33020
X48000Y24000
X95000Y15000
X50300Y23600
X19840Y25890
X4390Y32420
X43470Y16790
X60110Y19070
X68340Y35970
X37820Y42630
X22820Y7630
X34820Y7630
X9870Y44830
X58000Y19000
X45200Y19300
X95000Y31000
X43300Y26000
X41800Y28500
X40820Y19630
M30