G04 EAGLE Gerber RS-274X export*
G75*
%MOMM*%
%FSLAX34Y34*%
%LPD*%
%INSilkscreen Bottom*%
%IPPOS*%
%AMOC8*
5,1,8,0,0,1.08239X$1,22.5*%
G01*
%ADD10C,0.177800*%
%ADD11C,0.152400*%
%ADD12C,0.127000*%
%ADD13C,0.050800*%
%ADD14C,0.203200*%
%ADD15C,0.025400*%
%ADD16C,0.076200*%
%ADD17C,0.101600*%
%ADD18R,0.381000X1.016000*%
%ADD19R,1.371600X0.050800*%
%ADD20R,1.930400X0.050800*%
%ADD21R,2.235200X0.050800*%
%ADD22R,2.489200X0.050800*%
%ADD23R,0.609600X0.050800*%
%ADD24R,2.743200X0.050800*%
%ADD25R,1.574800X0.050800*%
%ADD26R,2.895600X0.050800*%
%ADD27R,2.184400X0.050800*%
%ADD28R,2.997200X0.050800*%
%ADD29R,2.641600X0.050800*%
%ADD30R,3.098800X0.050800*%
%ADD31R,2.946400X0.050800*%
%ADD32R,3.200400X0.050800*%
%ADD33R,3.048000X0.050800*%
%ADD34R,3.302000X0.050800*%
%ADD35R,3.149600X0.050800*%
%ADD36R,6.604000X0.050800*%
%ADD37R,3.403600X0.050800*%
%ADD38R,6.654800X0.050800*%
%ADD39R,6.705600X0.050800*%
%ADD40R,6.756400X0.050800*%
%ADD41R,6.807200X0.050800*%
%ADD42R,6.858000X0.050800*%
%ADD43R,6.502400X0.050800*%
%ADD44R,6.400800X0.050800*%
%ADD45R,6.197600X0.050800*%
%ADD46R,1.727200X0.050800*%
%ADD47R,0.558800X0.050800*%
%ADD48R,4.724400X0.050800*%
%ADD49R,4.673600X0.050800*%
%ADD50R,4.622800X0.050800*%
%ADD51R,4.521200X0.050800*%
%ADD52R,4.470400X0.050800*%
%ADD53R,1.168400X0.050800*%
%ADD54R,0.914400X0.050800*%
%ADD55R,1.270000X0.050800*%
%ADD56R,1.676400X0.050800*%
%ADD57R,1.219200X0.050800*%
%ADD58R,0.660400X0.050800*%
%ADD59R,1.066800X0.050800*%
%ADD60R,1.778000X0.050800*%
%ADD61R,2.844800X0.050800*%
%ADD62R,4.927600X0.050800*%
%ADD63R,2.794000X0.050800*%
%ADD64R,2.133600X0.050800*%
%ADD65R,1.117600X0.050800*%
%ADD66R,3.860800X0.050800*%
%ADD67R,5.130800X0.050800*%
%ADD68R,5.181600X0.050800*%
%ADD69R,4.064000X0.050800*%
%ADD70R,5.283200X0.050800*%
%ADD71R,5.334000X0.050800*%
%ADD72R,4.267200X0.050800*%
%ADD73R,5.384800X0.050800*%
%ADD74R,5.435600X0.050800*%
%ADD75R,5.486400X0.050800*%
%ADD76R,4.419600X0.050800*%
%ADD77R,5.537200X0.050800*%
%ADD78R,5.588000X0.050800*%
%ADD79R,1.016000X0.050800*%
%ADD80R,2.336800X0.050800*%
%ADD81R,3.251200X0.050800*%
%ADD82R,1.625600X0.050800*%
%ADD83R,1.524000X0.050800*%
%ADD84R,0.965200X0.050800*%
%ADD85R,0.355600X0.050800*%
%ADD86R,1.473200X0.050800*%
%ADD87R,1.422400X0.050800*%
%ADD88R,0.304800X0.050800*%
%ADD89R,1.320800X0.050800*%
%ADD90R,2.692400X0.050800*%
%ADD91R,0.152400X0.050800*%
%ADD92R,0.762000X0.050800*%
%ADD93R,2.540000X0.050800*%
%ADD94R,2.387600X0.050800*%
%ADD95R,0.101600X0.050800*%
%ADD96R,2.286000X0.050800*%
%ADD97R,2.438400X0.050800*%
%ADD98R,2.590800X0.050800*%
%ADD99R,0.406400X0.050800*%
%ADD100R,0.863600X0.050800*%
%ADD101R,1.828800X0.050800*%
%ADD102R,2.032000X0.050800*%
%ADD103R,5.842000X0.050800*%
%ADD104R,6.146800X0.050800*%
%ADD105R,6.299200X0.050800*%
%ADD106R,9.194800X0.050800*%
%ADD107R,9.093200X0.050800*%
%ADD108R,9.042400X0.050800*%
%ADD109R,8.991600X0.050800*%
%ADD110R,8.890000X0.050800*%
%ADD111R,8.839200X0.050800*%
%ADD112R,8.737600X0.050800*%
%ADD113R,8.636000X0.050800*%
%ADD114R,8.534400X0.050800*%
%ADD115R,8.382000X0.050800*%
%ADD116R,8.280400X0.050800*%
%ADD117R,8.128000X0.050800*%
%ADD118R,7.924800X0.050800*%
%ADD119R,7.772400X0.050800*%
%ADD120R,7.569200X0.050800*%
%ADD121R,4.368800X0.050800*%
%ADD122R,3.962400X0.050800*%
%ADD123R,3.657600X0.050800*%
%ADD124R,0.508000X0.050800*%
%ADD125R,0.711200X0.050800*%
%ADD126R,0.457200X0.050800*%
%ADD127R,1.981200X0.050800*%
%ADD128R,1.879600X0.050800*%
%ADD129R,0.254000X0.050800*%
%ADD130R,0.203200X0.050800*%
%ADD131R,3.911600X0.050800*%
%ADD132R,0.812800X0.050800*%
%ADD133R,4.013200X0.050800*%
%ADD134R,4.165600X0.050800*%
%ADD135R,4.216400X0.050800*%
%ADD136R,4.318000X0.050800*%
%ADD137R,3.708400X0.050800*%
%ADD138R,4.572000X0.050800*%
%ADD139R,4.114800X0.050800*%
%ADD140R,0.050800X0.050800*%
%ADD141R,3.759200X0.050800*%
%ADD142R,3.556000X0.050800*%
%ADD143R,3.454400X0.050800*%
%ADD144R,3.352800X0.050800*%
%ADD145R,2.082800X0.050800*%


D10*
X420911Y25489D02*
X420911Y46729D01*
X406751Y46729D01*
X413831Y36109D02*
X420911Y36109D01*
X396193Y25489D02*
X389113Y25489D01*
X396193Y25489D02*
X399733Y29029D01*
X399733Y36109D01*
X396193Y39649D01*
X389113Y39649D01*
X385573Y36109D01*
X385573Y32569D01*
X399733Y32569D01*
X378555Y46729D02*
X375015Y46729D01*
X375015Y25489D01*
X378555Y25489D02*
X371475Y25489D01*
X364436Y39649D02*
X360896Y39649D01*
X360896Y25489D01*
X364436Y25489D02*
X357356Y25489D01*
X360896Y46729D02*
X360896Y50269D01*
X350317Y39649D02*
X336157Y25489D01*
X350317Y25489D02*
X336157Y39649D01*
X307961Y46729D02*
X307961Y25489D01*
X293801Y25489D01*
X286783Y39649D02*
X283243Y39649D01*
X283243Y25489D01*
X286783Y25489D02*
X279703Y25489D01*
X283243Y46729D02*
X283243Y50269D01*
X265584Y18409D02*
X262044Y18409D01*
X258504Y21949D01*
X258504Y39649D01*
X269124Y39649D01*
X272664Y36109D01*
X272664Y29029D01*
X269124Y25489D01*
X258504Y25489D01*
X251486Y25489D02*
X251486Y46729D01*
X247946Y39649D02*
X251486Y36109D01*
X247946Y39649D02*
X240866Y39649D01*
X237326Y36109D01*
X237326Y25489D01*
X226768Y29029D02*
X226768Y43189D01*
X226768Y29029D02*
X223228Y25489D01*
X223228Y39649D02*
X230308Y39649D01*
X184391Y46729D02*
X180851Y43189D01*
X184391Y46729D02*
X191471Y46729D01*
X195011Y43189D01*
X195011Y29029D01*
X191471Y25489D01*
X184391Y25489D01*
X180851Y29029D01*
X170293Y25489D02*
X163213Y25489D01*
X159673Y29029D01*
X159673Y36109D01*
X163213Y39649D01*
X170293Y39649D01*
X173833Y36109D01*
X173833Y29029D01*
X170293Y25489D01*
X152655Y25489D02*
X152655Y39649D01*
X142035Y39649D01*
X138495Y36109D01*
X138495Y25489D01*
X127937Y29029D02*
X127937Y43189D01*
X127937Y29029D02*
X124397Y25489D01*
X124397Y39649D02*
X131477Y39649D01*
X117358Y39649D02*
X117358Y25489D01*
X117358Y32569D02*
X110278Y39649D01*
X106738Y39649D01*
X96170Y25489D02*
X89090Y25489D01*
X85550Y29029D01*
X85550Y36109D01*
X89090Y39649D01*
X96170Y39649D01*
X99710Y36109D01*
X99710Y29029D01*
X96170Y25489D01*
X78532Y46729D02*
X74992Y46729D01*
X74992Y25489D01*
X78532Y25489D02*
X71452Y25489D01*
X64413Y46729D02*
X60873Y46729D01*
X60873Y25489D01*
X64413Y25489D02*
X57333Y25489D01*
X46754Y25489D02*
X39674Y25489D01*
X46754Y25489D02*
X50294Y29029D01*
X50294Y36109D01*
X46754Y39649D01*
X39674Y39649D01*
X36134Y36109D01*
X36134Y32569D01*
X50294Y32569D01*
X29116Y25489D02*
X29116Y39649D01*
X29116Y32569D02*
X22036Y39649D01*
X18496Y39649D01*
D11*
X647138Y379118D02*
X647138Y396913D01*
X635275Y396913D01*
X641206Y388016D02*
X647138Y388016D01*
X626397Y390981D02*
X620466Y390981D01*
X617500Y388016D01*
X617500Y379118D01*
X626397Y379118D01*
X629363Y382084D01*
X626397Y385050D01*
X617500Y385050D01*
X599725Y379118D02*
X599725Y396913D01*
X599725Y379118D02*
X608622Y379118D01*
X611588Y382084D01*
X611588Y388016D01*
X608622Y390981D01*
X599725Y390981D01*
X590848Y379118D02*
X584916Y379118D01*
X590848Y379118D02*
X593813Y382084D01*
X593813Y388016D01*
X590848Y390981D01*
X584916Y390981D01*
X581950Y388016D01*
X581950Y385050D01*
X593813Y385050D01*
X576039Y379118D02*
X576039Y390981D01*
X576039Y385050D02*
X570107Y390981D01*
X567141Y390981D01*
X543451Y396913D02*
X543451Y379118D01*
X537520Y390981D02*
X543451Y396913D01*
X537520Y390981D02*
X531588Y396913D01*
X531588Y379118D01*
X522711Y379118D02*
X516779Y379118D01*
X513813Y382084D01*
X513813Y388016D01*
X516779Y390981D01*
X522711Y390981D01*
X525677Y388016D01*
X525677Y382084D01*
X522711Y379118D01*
X496038Y379118D02*
X496038Y396913D01*
X496038Y379118D02*
X504936Y379118D01*
X507902Y382084D01*
X507902Y388016D01*
X504936Y390981D01*
X496038Y390981D01*
X490127Y390981D02*
X490127Y382084D01*
X487161Y379118D01*
X478263Y379118D01*
X478263Y390981D01*
X472352Y396913D02*
X469386Y396913D01*
X469386Y379118D01*
X472352Y379118D02*
X466420Y379118D01*
X457536Y379118D02*
X451605Y379118D01*
X457536Y379118D02*
X460502Y382084D01*
X460502Y388016D01*
X457536Y390981D01*
X451605Y390981D01*
X448639Y388016D01*
X448639Y385050D01*
X460502Y385050D01*
X641206Y350162D02*
X647138Y362025D01*
X635275Y362025D02*
X641206Y350162D01*
X626397Y350162D02*
X620466Y350162D01*
X626397Y350162D02*
X629363Y353128D01*
X629363Y359060D01*
X626397Y362025D01*
X620466Y362025D01*
X617500Y359060D01*
X617500Y356094D01*
X629363Y356094D01*
X611588Y350162D02*
X611588Y362025D01*
X611588Y356094D02*
X605657Y362025D01*
X602691Y362025D01*
X596776Y353128D02*
X596776Y350162D01*
X596776Y353128D02*
X593810Y353128D01*
X593810Y350162D01*
X596776Y350162D01*
X570114Y362025D02*
X564182Y367957D01*
X564182Y350162D01*
X570114Y350162D02*
X558250Y350162D01*
X552339Y350162D02*
X552339Y353128D01*
X549373Y353128D01*
X549373Y350162D01*
X552339Y350162D01*
X543451Y362025D02*
X537520Y367957D01*
X537520Y350162D01*
X543451Y350162D02*
X531588Y350162D01*
D12*
X647965Y341078D02*
X647965Y326335D01*
X640594Y326335D01*
X638137Y328792D01*
X638137Y338621D01*
X640594Y341078D01*
X647965Y341078D01*
X630775Y326335D02*
X625861Y326335D01*
X630775Y326335D02*
X633232Y328792D01*
X633232Y333706D01*
X630775Y336163D01*
X625861Y336163D01*
X623404Y333706D01*
X623404Y331249D01*
X633232Y331249D01*
X618500Y326335D02*
X611129Y326335D01*
X608672Y328792D01*
X611129Y331249D01*
X616043Y331249D01*
X618500Y333706D01*
X616043Y336163D01*
X608672Y336163D01*
X603767Y336163D02*
X601310Y336163D01*
X601310Y326335D01*
X603767Y326335D02*
X598853Y326335D01*
X601310Y341078D02*
X601310Y343535D01*
X589031Y321421D02*
X586574Y321421D01*
X584117Y323878D01*
X584117Y336163D01*
X591489Y336163D01*
X593946Y333706D01*
X593946Y328792D01*
X591489Y326335D01*
X584117Y326335D01*
X579213Y326335D02*
X579213Y336163D01*
X571842Y336163D01*
X569385Y333706D01*
X569385Y326335D01*
X562023Y326335D02*
X557109Y326335D01*
X562023Y326335D02*
X564480Y328792D01*
X564480Y333706D01*
X562023Y336163D01*
X557109Y336163D01*
X554652Y333706D01*
X554652Y331249D01*
X564480Y331249D01*
X539920Y326335D02*
X539920Y341078D01*
X539920Y326335D02*
X547291Y326335D01*
X549748Y328792D01*
X549748Y333706D01*
X547291Y336163D01*
X539920Y336163D01*
X520283Y341078D02*
X520283Y326335D01*
X512912Y326335D01*
X510454Y328792D01*
X510454Y333706D01*
X512912Y336163D01*
X520283Y336163D01*
X505550Y336163D02*
X505550Y328792D01*
X503093Y326335D01*
X495722Y326335D01*
X495722Y323878D02*
X495722Y336163D01*
X495722Y323878D02*
X498179Y321421D01*
X500636Y321421D01*
X640594Y317078D02*
X645508Y317078D01*
X647965Y314621D01*
X647965Y304792D01*
X645508Y302335D01*
X640594Y302335D01*
X638137Y304792D01*
X638137Y314621D01*
X640594Y317078D01*
X633232Y317078D02*
X630775Y317078D01*
X630775Y302335D01*
X633232Y302335D02*
X628318Y302335D01*
X620954Y302335D02*
X616039Y302335D01*
X620954Y302335D02*
X623411Y304792D01*
X623411Y309706D01*
X620954Y312163D01*
X616039Y312163D01*
X613582Y309706D01*
X613582Y307249D01*
X623411Y307249D01*
X593946Y302335D02*
X593946Y317078D01*
X586574Y317078D01*
X584117Y314621D01*
X584117Y312163D01*
X586574Y309706D01*
X584117Y307249D01*
X584117Y304792D01*
X586574Y302335D01*
X593946Y302335D01*
X593946Y309706D02*
X586574Y309706D01*
X576756Y312163D02*
X571842Y312163D01*
X569385Y309706D01*
X569385Y302335D01*
X576756Y302335D01*
X579213Y304792D01*
X576756Y307249D01*
X569385Y307249D01*
X564480Y304792D02*
X564480Y312163D01*
X564480Y304792D02*
X562023Y302335D01*
X554652Y302335D01*
X554652Y312163D01*
X547291Y312163D02*
X539920Y312163D01*
X547291Y312163D02*
X549748Y309706D01*
X549748Y304792D01*
X547291Y302335D01*
X539920Y302335D01*
X535015Y302335D02*
X535015Y317078D01*
X535015Y307249D02*
X527644Y302335D01*
X535015Y307249D02*
X527644Y312163D01*
X508006Y302335D02*
X498177Y302335D01*
X498177Y312163D02*
X508006Y302335D01*
X498177Y312163D02*
X498177Y314621D01*
X500634Y317078D01*
X505549Y317078D01*
X508006Y314621D01*
X493273Y314621D02*
X493273Y304792D01*
X493273Y314621D02*
X490816Y317078D01*
X485902Y317078D01*
X483445Y314621D01*
X483445Y304792D01*
X485902Y302335D01*
X490816Y302335D01*
X493273Y304792D01*
X483445Y314621D01*
X478541Y312163D02*
X473626Y317078D01*
X473626Y302335D01*
X468712Y302335D02*
X478541Y302335D01*
X463808Y317078D02*
X453980Y317078D01*
X463808Y317078D02*
X463808Y309706D01*
X458894Y312163D01*
X456437Y312163D01*
X453980Y309706D01*
X453980Y304792D01*
X456437Y302335D01*
X461351Y302335D01*
X463808Y304792D01*
D11*
X310390Y435358D02*
X267210Y435358D01*
X263400Y400052D02*
X263402Y399930D01*
X263408Y399808D01*
X263418Y399686D01*
X263431Y399565D01*
X263449Y399444D01*
X263470Y399324D01*
X263496Y399204D01*
X263525Y399086D01*
X263557Y398968D01*
X263594Y398851D01*
X263634Y398736D01*
X263678Y398622D01*
X263726Y398510D01*
X263777Y398399D01*
X263832Y398290D01*
X263890Y398182D01*
X263952Y398077D01*
X264017Y397974D01*
X264085Y397872D01*
X264157Y397773D01*
X264231Y397677D01*
X264309Y397582D01*
X264390Y397491D01*
X264473Y397401D01*
X264559Y397315D01*
X264649Y397232D01*
X264740Y397151D01*
X264835Y397073D01*
X264931Y396999D01*
X265030Y396927D01*
X265132Y396859D01*
X265235Y396794D01*
X265340Y396732D01*
X265448Y396674D01*
X265557Y396619D01*
X265668Y396568D01*
X265780Y396520D01*
X265894Y396476D01*
X266009Y396436D01*
X266126Y396399D01*
X266244Y396367D01*
X266362Y396338D01*
X266482Y396312D01*
X266602Y396291D01*
X266723Y396273D01*
X266844Y396260D01*
X266966Y396250D01*
X267088Y396244D01*
X267210Y396242D01*
X310390Y435358D02*
X310512Y435356D01*
X310634Y435350D01*
X310756Y435340D01*
X310877Y435327D01*
X310998Y435309D01*
X311118Y435288D01*
X311238Y435262D01*
X311356Y435233D01*
X311474Y435201D01*
X311591Y435164D01*
X311706Y435124D01*
X311820Y435080D01*
X311932Y435032D01*
X312043Y434981D01*
X312152Y434926D01*
X312260Y434868D01*
X312365Y434806D01*
X312468Y434741D01*
X312570Y434673D01*
X312669Y434601D01*
X312765Y434527D01*
X312860Y434449D01*
X312951Y434368D01*
X313041Y434285D01*
X313127Y434199D01*
X313210Y434109D01*
X313291Y434018D01*
X313369Y433923D01*
X313443Y433827D01*
X313515Y433728D01*
X313583Y433626D01*
X313648Y433523D01*
X313710Y433418D01*
X313768Y433310D01*
X313823Y433201D01*
X313874Y433090D01*
X313922Y432978D01*
X313966Y432864D01*
X314006Y432749D01*
X314043Y432632D01*
X314075Y432514D01*
X314104Y432396D01*
X314130Y432276D01*
X314151Y432156D01*
X314169Y432035D01*
X314182Y431914D01*
X314192Y431792D01*
X314198Y431670D01*
X314200Y431548D01*
X267210Y435358D02*
X267088Y435356D01*
X266966Y435350D01*
X266844Y435340D01*
X266723Y435327D01*
X266602Y435309D01*
X266482Y435288D01*
X266362Y435262D01*
X266244Y435233D01*
X266126Y435201D01*
X266009Y435164D01*
X265894Y435124D01*
X265780Y435080D01*
X265668Y435032D01*
X265557Y434981D01*
X265448Y434926D01*
X265340Y434868D01*
X265235Y434806D01*
X265132Y434741D01*
X265030Y434673D01*
X264931Y434601D01*
X264835Y434527D01*
X264740Y434449D01*
X264649Y434368D01*
X264559Y434285D01*
X264473Y434199D01*
X264390Y434109D01*
X264309Y434018D01*
X264231Y433923D01*
X264157Y433827D01*
X264085Y433728D01*
X264017Y433626D01*
X263952Y433523D01*
X263890Y433418D01*
X263832Y433310D01*
X263777Y433201D01*
X263726Y433090D01*
X263678Y432978D01*
X263634Y432864D01*
X263594Y432749D01*
X263557Y432632D01*
X263525Y432514D01*
X263496Y432396D01*
X263470Y432276D01*
X263449Y432156D01*
X263431Y432035D01*
X263418Y431914D01*
X263408Y431792D01*
X263402Y431670D01*
X263400Y431548D01*
X310390Y396242D02*
X310512Y396244D01*
X310634Y396250D01*
X310756Y396260D01*
X310877Y396273D01*
X310998Y396291D01*
X311118Y396312D01*
X311238Y396338D01*
X311356Y396367D01*
X311474Y396399D01*
X311591Y396436D01*
X311706Y396476D01*
X311820Y396520D01*
X311932Y396568D01*
X312043Y396619D01*
X312152Y396674D01*
X312260Y396732D01*
X312365Y396794D01*
X312468Y396859D01*
X312570Y396927D01*
X312669Y396999D01*
X312765Y397073D01*
X312860Y397151D01*
X312951Y397232D01*
X313041Y397315D01*
X313127Y397401D01*
X313210Y397491D01*
X313291Y397582D01*
X313369Y397677D01*
X313443Y397773D01*
X313515Y397872D01*
X313583Y397974D01*
X313648Y398077D01*
X313710Y398182D01*
X313768Y398290D01*
X313823Y398399D01*
X313874Y398510D01*
X313922Y398622D01*
X313966Y398736D01*
X314006Y398851D01*
X314043Y398968D01*
X314075Y399086D01*
X314104Y399204D01*
X314130Y399324D01*
X314151Y399444D01*
X314169Y399565D01*
X314182Y399686D01*
X314192Y399808D01*
X314198Y399930D01*
X314200Y400052D01*
X310390Y396242D02*
X267210Y396242D01*
X263400Y400052D02*
X263400Y431548D01*
X314200Y431548D02*
X314200Y420880D01*
X314200Y410720D01*
X314200Y400052D01*
X314200Y410720D02*
X314059Y410722D01*
X313918Y410728D01*
X313777Y410738D01*
X313636Y410751D01*
X313496Y410769D01*
X313357Y410791D01*
X313218Y410816D01*
X313079Y410845D01*
X312942Y410878D01*
X312806Y410915D01*
X312671Y410956D01*
X312536Y411000D01*
X312404Y411048D01*
X312272Y411100D01*
X312142Y411155D01*
X312014Y411214D01*
X311887Y411277D01*
X311763Y411343D01*
X311640Y411412D01*
X311519Y411485D01*
X311400Y411561D01*
X311283Y411641D01*
X311169Y411724D01*
X311056Y411809D01*
X310947Y411898D01*
X310839Y411990D01*
X310735Y412085D01*
X310633Y412183D01*
X310534Y412284D01*
X310437Y412387D01*
X310344Y412493D01*
X310254Y412601D01*
X310166Y412712D01*
X310082Y412825D01*
X310001Y412941D01*
X309923Y413059D01*
X309848Y413179D01*
X309777Y413301D01*
X309709Y413425D01*
X309645Y413551D01*
X309584Y413678D01*
X309527Y413807D01*
X309474Y413938D01*
X309424Y414070D01*
X309377Y414203D01*
X309335Y414338D01*
X309296Y414474D01*
X309261Y414611D01*
X309230Y414748D01*
X309203Y414887D01*
X309179Y415026D01*
X309160Y415166D01*
X309144Y415306D01*
X309132Y415447D01*
X309124Y415588D01*
X309120Y415729D01*
X309120Y415871D01*
X309124Y416012D01*
X309132Y416153D01*
X309144Y416294D01*
X309160Y416434D01*
X309179Y416574D01*
X309203Y416713D01*
X309230Y416852D01*
X309261Y416989D01*
X309296Y417126D01*
X309335Y417262D01*
X309377Y417397D01*
X309424Y417530D01*
X309474Y417662D01*
X309527Y417793D01*
X309584Y417922D01*
X309645Y418049D01*
X309709Y418175D01*
X309777Y418299D01*
X309848Y418421D01*
X309923Y418541D01*
X310001Y418659D01*
X310082Y418775D01*
X310166Y418888D01*
X310254Y418999D01*
X310344Y419107D01*
X310437Y419213D01*
X310534Y419316D01*
X310633Y419417D01*
X310735Y419515D01*
X310839Y419610D01*
X310947Y419702D01*
X311056Y419791D01*
X311169Y419876D01*
X311283Y419959D01*
X311400Y420039D01*
X311519Y420115D01*
X311640Y420188D01*
X311763Y420257D01*
X311887Y420323D01*
X312014Y420386D01*
X312142Y420445D01*
X312272Y420500D01*
X312404Y420552D01*
X312536Y420600D01*
X312671Y420644D01*
X312806Y420685D01*
X312942Y420722D01*
X313079Y420755D01*
X313218Y420784D01*
X313357Y420809D01*
X313496Y420831D01*
X313636Y420849D01*
X313777Y420862D01*
X313918Y420872D01*
X314059Y420878D01*
X314200Y420880D01*
D13*
X314200Y399798D02*
X263400Y399798D01*
D14*
X186066Y373410D02*
X186066Y340390D01*
X186066Y373410D02*
X120534Y373410D01*
X120534Y340390D01*
X186066Y340390D01*
D15*
X154897Y307878D02*
X153626Y307878D01*
X154261Y307878D02*
X154261Y311691D01*
X153626Y311691D02*
X154897Y311691D01*
X150496Y311691D02*
X149860Y311056D01*
X150496Y311691D02*
X151767Y311691D01*
X152402Y311056D01*
X152402Y308514D01*
X151767Y307878D01*
X150496Y307878D01*
X149860Y308514D01*
X148660Y307878D02*
X146118Y307878D01*
X148660Y307878D02*
X146118Y310420D01*
X146118Y311056D01*
X146753Y311691D01*
X148025Y311691D01*
X148660Y311056D01*
D12*
X333580Y302800D02*
X341200Y310420D01*
X341200Y345980D01*
X333580Y353600D01*
X320880Y353600D01*
X315800Y348520D01*
X310720Y353600D01*
X295480Y353600D01*
X290400Y348520D01*
X285320Y353600D01*
X272620Y353600D01*
X265000Y345980D01*
X265000Y310420D01*
X272620Y302800D01*
X285320Y302800D01*
X290400Y307880D01*
X295480Y302800D01*
X310720Y302800D01*
X315800Y307880D01*
X320880Y302800D01*
X333580Y302800D01*
D16*
X345312Y298101D02*
X348447Y301236D01*
X339041Y301236D01*
X339041Y298101D02*
X339041Y304372D01*
D17*
X303296Y285528D02*
X299398Y285528D01*
X301347Y285528D02*
X301347Y297222D01*
X303296Y297222D02*
X299398Y297222D01*
X289653Y297222D02*
X287704Y295273D01*
X289653Y297222D02*
X293551Y297222D01*
X295500Y295273D01*
X295500Y293324D01*
X293551Y291375D01*
X289653Y291375D01*
X287704Y289426D01*
X287704Y287477D01*
X289653Y285528D01*
X293551Y285528D01*
X295500Y287477D01*
X283806Y285528D02*
X283806Y297222D01*
X277959Y297222D01*
X276010Y295273D01*
X276010Y291375D01*
X277959Y289426D01*
X283806Y289426D01*
X193442Y299258D02*
X193442Y310952D01*
X187595Y310952D01*
X185646Y309003D01*
X185646Y305105D01*
X187595Y303156D01*
X193442Y303156D01*
X189544Y303156D02*
X185646Y299258D01*
X181748Y307054D02*
X177850Y310952D01*
X177850Y299258D01*
X181748Y299258D02*
X173952Y299258D01*
X495130Y180152D02*
X495130Y168458D01*
X495130Y180152D02*
X489283Y180152D01*
X487334Y178203D01*
X487334Y174305D01*
X489283Y172356D01*
X495130Y172356D01*
X491232Y172356D02*
X487334Y168458D01*
X483436Y180152D02*
X475640Y180152D01*
X475640Y178203D01*
X483436Y170407D01*
X483436Y168458D01*
X557742Y204158D02*
X557742Y215852D01*
X551895Y215852D01*
X549946Y213903D01*
X549946Y210005D01*
X551895Y208056D01*
X557742Y208056D01*
X553844Y208056D02*
X549946Y204158D01*
X546048Y213903D02*
X544099Y215852D01*
X540201Y215852D01*
X538252Y213903D01*
X538252Y211954D01*
X540201Y210005D01*
X538252Y208056D01*
X538252Y206107D01*
X540201Y204158D01*
X544099Y204158D01*
X546048Y206107D01*
X546048Y208056D01*
X544099Y210005D01*
X546048Y211954D01*
X546048Y213903D01*
X544099Y210005D02*
X540201Y210005D01*
D11*
X443550Y297250D02*
X373450Y297250D01*
X373450Y227150D01*
X440000Y227150D01*
X443550Y230700D02*
X443550Y297250D01*
X443550Y230700D02*
X440000Y227150D01*
X432340Y234768D02*
X432342Y234887D01*
X432348Y235007D01*
X432358Y235126D01*
X432372Y235244D01*
X432390Y235362D01*
X432411Y235480D01*
X432437Y235596D01*
X432466Y235712D01*
X432500Y235827D01*
X432537Y235940D01*
X432578Y236052D01*
X432622Y236163D01*
X432670Y236273D01*
X432722Y236380D01*
X432777Y236486D01*
X432836Y236590D01*
X432899Y236692D01*
X432964Y236791D01*
X433033Y236889D01*
X433105Y236984D01*
X433180Y237077D01*
X433259Y237167D01*
X433340Y237255D01*
X433424Y237339D01*
X433511Y237421D01*
X433600Y237500D01*
X433692Y237576D01*
X433787Y237649D01*
X433884Y237719D01*
X433983Y237785D01*
X434085Y237848D01*
X434188Y237908D01*
X434293Y237964D01*
X434400Y238017D01*
X434509Y238066D01*
X434620Y238112D01*
X434732Y238153D01*
X434845Y238191D01*
X434959Y238226D01*
X435075Y238256D01*
X435191Y238283D01*
X435308Y238305D01*
X435426Y238324D01*
X435545Y238339D01*
X435664Y238350D01*
X435783Y238357D01*
X435902Y238360D01*
X436022Y238359D01*
X436141Y238354D01*
X436260Y238345D01*
X436379Y238332D01*
X436497Y238315D01*
X436614Y238295D01*
X436731Y238270D01*
X436847Y238241D01*
X436962Y238209D01*
X437076Y238173D01*
X437189Y238133D01*
X437300Y238089D01*
X437409Y238042D01*
X437517Y237991D01*
X437624Y237937D01*
X437728Y237879D01*
X437830Y237817D01*
X437931Y237753D01*
X438029Y237684D01*
X438125Y237613D01*
X438218Y237539D01*
X438309Y237461D01*
X438397Y237381D01*
X438482Y237297D01*
X438565Y237211D01*
X438645Y237122D01*
X438722Y237031D01*
X438795Y236937D01*
X438866Y236840D01*
X438933Y236742D01*
X438997Y236641D01*
X439058Y236538D01*
X439115Y236433D01*
X439168Y236327D01*
X439218Y236218D01*
X439265Y236108D01*
X439307Y235997D01*
X439346Y235884D01*
X439382Y235770D01*
X439413Y235654D01*
X439440Y235538D01*
X439464Y235421D01*
X439484Y235303D01*
X439500Y235185D01*
X439512Y235066D01*
X439520Y234947D01*
X439524Y234828D01*
X439524Y234708D01*
X439520Y234589D01*
X439512Y234470D01*
X439500Y234351D01*
X439484Y234233D01*
X439464Y234115D01*
X439440Y233998D01*
X439413Y233882D01*
X439382Y233766D01*
X439346Y233652D01*
X439307Y233539D01*
X439265Y233428D01*
X439218Y233318D01*
X439168Y233209D01*
X439115Y233103D01*
X439058Y232998D01*
X438997Y232895D01*
X438933Y232794D01*
X438866Y232696D01*
X438795Y232599D01*
X438722Y232505D01*
X438645Y232414D01*
X438565Y232325D01*
X438482Y232239D01*
X438397Y232155D01*
X438309Y232075D01*
X438218Y231997D01*
X438125Y231923D01*
X438029Y231852D01*
X437931Y231783D01*
X437830Y231719D01*
X437728Y231657D01*
X437624Y231599D01*
X437517Y231545D01*
X437409Y231494D01*
X437300Y231447D01*
X437189Y231403D01*
X437076Y231363D01*
X436962Y231327D01*
X436847Y231295D01*
X436731Y231266D01*
X436614Y231241D01*
X436497Y231221D01*
X436379Y231204D01*
X436260Y231191D01*
X436141Y231182D01*
X436022Y231177D01*
X435902Y231176D01*
X435783Y231179D01*
X435664Y231186D01*
X435545Y231197D01*
X435426Y231212D01*
X435308Y231231D01*
X435191Y231253D01*
X435075Y231280D01*
X434959Y231310D01*
X434845Y231345D01*
X434732Y231383D01*
X434620Y231424D01*
X434509Y231470D01*
X434400Y231519D01*
X434293Y231572D01*
X434188Y231628D01*
X434085Y231688D01*
X433983Y231751D01*
X433884Y231817D01*
X433787Y231887D01*
X433692Y231960D01*
X433600Y232036D01*
X433511Y232115D01*
X433424Y232197D01*
X433340Y232281D01*
X433259Y232369D01*
X433180Y232459D01*
X433105Y232552D01*
X433033Y232647D01*
X432964Y232745D01*
X432899Y232844D01*
X432836Y232946D01*
X432777Y233050D01*
X432722Y233156D01*
X432670Y233263D01*
X432622Y233373D01*
X432578Y233484D01*
X432537Y233596D01*
X432500Y233709D01*
X432466Y233824D01*
X432437Y233940D01*
X432411Y234056D01*
X432390Y234174D01*
X432372Y234292D01*
X432358Y234410D01*
X432348Y234529D01*
X432342Y234649D01*
X432340Y234768D01*
D17*
X393852Y364805D02*
X391903Y366754D01*
X393852Y364805D02*
X393852Y360907D01*
X391903Y358958D01*
X384107Y358958D01*
X382158Y360907D01*
X382158Y364805D01*
X384107Y366754D01*
X389954Y370652D02*
X393852Y374550D01*
X382158Y374550D01*
X382158Y370652D02*
X382158Y378448D01*
X76045Y395952D02*
X74096Y394003D01*
X76045Y395952D02*
X79943Y395952D01*
X81892Y394003D01*
X81892Y386207D01*
X79943Y384258D01*
X76045Y384258D01*
X74096Y386207D01*
X70198Y394003D02*
X68249Y395952D01*
X64351Y395952D01*
X62402Y394003D01*
X62402Y392054D01*
X64351Y390105D01*
X66300Y390105D01*
X64351Y390105D02*
X62402Y388156D01*
X62402Y386207D01*
X64351Y384258D01*
X68249Y384258D01*
X70198Y386207D01*
D11*
X63070Y212720D02*
X63070Y121280D01*
X162130Y121280D02*
X162130Y212720D01*
X162130Y121280D02*
X129110Y121280D01*
X96090Y121280D02*
X96090Y126360D01*
X129110Y126360D01*
X129110Y121280D01*
X96090Y121280D02*
X63070Y121280D01*
X96090Y121280D02*
X129110Y121280D01*
X96090Y212720D02*
X63070Y212720D01*
X129110Y212720D02*
X129110Y207640D01*
X96090Y207640D01*
X96090Y212720D01*
X129110Y212720D02*
X162130Y212720D01*
X129110Y212720D02*
X96090Y212720D01*
X93550Y184780D02*
X131650Y184780D01*
X131650Y200020D01*
X93550Y200020D01*
X93550Y184780D01*
X93550Y159380D02*
X131650Y159380D01*
X131650Y174620D01*
X93550Y174620D01*
X93550Y159380D01*
X93550Y133980D02*
X131650Y133980D01*
X131650Y149220D01*
X93550Y149220D01*
X93550Y133980D01*
D18*
X110695Y192400D03*
X104345Y192400D03*
X97995Y192400D03*
X110695Y167000D03*
X104345Y167000D03*
X97995Y167000D03*
X110695Y141600D03*
X104345Y141600D03*
X97995Y141600D03*
D12*
X176575Y115728D02*
X176575Y111915D01*
X176575Y113822D02*
X188015Y113822D01*
X188015Y115728D02*
X188015Y111915D01*
X176575Y119711D02*
X176575Y127337D01*
X176575Y119711D02*
X184202Y127337D01*
X186108Y127337D01*
X188015Y125431D01*
X188015Y121618D01*
X186108Y119711D01*
X188015Y137125D02*
X186108Y139031D01*
X188015Y137125D02*
X188015Y133312D01*
X186108Y131405D01*
X178482Y131405D01*
X176575Y133312D01*
X176575Y137125D01*
X178482Y139031D01*
X174668Y143099D02*
X174668Y150725D01*
X176575Y154793D02*
X184202Y154793D01*
X188015Y158606D01*
X184202Y162419D01*
X176575Y162419D01*
X182295Y162419D02*
X182295Y154793D01*
X188015Y166487D02*
X176575Y166487D01*
X176575Y172207D01*
X178482Y174113D01*
X186108Y174113D01*
X188015Y172207D01*
X188015Y166487D01*
X188015Y178181D02*
X176575Y178181D01*
X176575Y183901D01*
X178482Y185807D01*
X186108Y185807D01*
X188015Y183901D01*
X188015Y178181D01*
X188015Y189875D02*
X176575Y189875D01*
X188015Y189875D02*
X188015Y195595D01*
X186108Y197501D01*
X182295Y197501D01*
X180388Y195595D01*
X180388Y189875D01*
X180388Y193688D02*
X176575Y197501D01*
X188015Y201569D02*
X188015Y209195D01*
X188015Y201569D02*
X176575Y201569D01*
X176575Y209195D01*
X182295Y205382D02*
X182295Y201569D01*
X188015Y218983D02*
X186108Y220889D01*
X188015Y218983D02*
X188015Y215169D01*
X186108Y213263D01*
X184202Y213263D01*
X182295Y215169D01*
X182295Y218983D01*
X180388Y220889D01*
X178482Y220889D01*
X176575Y218983D01*
X176575Y215169D01*
X178482Y213263D01*
X188015Y230677D02*
X186108Y232583D01*
X188015Y230677D02*
X188015Y226863D01*
X186108Y224957D01*
X184202Y224957D01*
X182295Y226863D01*
X182295Y230677D01*
X180388Y232583D01*
X178482Y232583D01*
X176575Y230677D01*
X176575Y226863D01*
X178482Y224957D01*
D13*
X288909Y158570D02*
X289192Y158165D01*
X289485Y157766D01*
X289788Y157375D01*
X290100Y156991D01*
X290421Y156615D01*
X290751Y156247D01*
X291090Y155887D01*
X291438Y155536D01*
X291794Y155193D01*
X292158Y154858D01*
X292531Y154533D01*
X292911Y154217D01*
X293299Y153910D01*
X293694Y153613D01*
X294096Y153325D01*
X294506Y153048D01*
X294921Y152780D01*
X295344Y152523D01*
X295772Y152276D01*
X296206Y152039D01*
X296646Y151813D01*
X297091Y151598D01*
X297541Y151393D01*
X297997Y151200D01*
X298456Y151018D01*
X298920Y150847D01*
X299388Y150688D01*
X299860Y150539D01*
X300335Y150403D01*
X300814Y150278D01*
X301295Y150165D01*
X301779Y150063D01*
X302265Y149973D01*
X302754Y149895D01*
X303244Y149829D01*
X303735Y149775D01*
X304228Y149733D01*
X304722Y149703D01*
X305216Y149685D01*
X305710Y149679D01*
D11*
X282850Y148410D02*
X282850Y158570D01*
D13*
X374290Y149680D02*
X374784Y149686D01*
X375278Y149704D01*
X375772Y149734D01*
X376264Y149776D01*
X376756Y149830D01*
X377246Y149896D01*
X377734Y149974D01*
X378221Y150064D01*
X378704Y150165D01*
X379186Y150279D01*
X379664Y150404D01*
X380139Y150540D01*
X380611Y150688D01*
X381079Y150848D01*
X381543Y151019D01*
X382003Y151201D01*
X382458Y151394D01*
X382909Y151598D01*
X383354Y151813D01*
X383794Y152039D01*
X384228Y152276D01*
X384656Y152523D01*
X385078Y152780D01*
X385494Y153048D01*
X385903Y153326D01*
X386306Y153613D01*
X386701Y153910D01*
X387089Y154217D01*
X387469Y154533D01*
X387841Y154859D01*
X388206Y155193D01*
X388562Y155536D01*
X388910Y155887D01*
X389249Y156247D01*
X389579Y156615D01*
X389900Y156991D01*
X390212Y157375D01*
X390515Y157766D01*
X390807Y158165D01*
X391091Y158570D01*
D11*
X397150Y158570D02*
X397150Y148410D01*
D13*
X374290Y182700D02*
X305710Y182700D01*
X305710Y190320D02*
X374290Y190320D01*
X374290Y157300D02*
X305710Y157300D01*
D11*
X285390Y194130D02*
X394610Y194130D01*
X394710Y194128D01*
X394809Y194122D01*
X394909Y194112D01*
X395007Y194099D01*
X395106Y194081D01*
X395203Y194060D01*
X395299Y194035D01*
X395395Y194006D01*
X395489Y193973D01*
X395582Y193937D01*
X395673Y193897D01*
X395763Y193853D01*
X395851Y193806D01*
X395937Y193756D01*
X396021Y193702D01*
X396103Y193645D01*
X396182Y193585D01*
X396260Y193521D01*
X396334Y193455D01*
X396406Y193386D01*
X396475Y193314D01*
X396541Y193240D01*
X396605Y193162D01*
X396665Y193083D01*
X396722Y193001D01*
X396776Y192917D01*
X396826Y192831D01*
X396873Y192743D01*
X396917Y192653D01*
X396957Y192562D01*
X396993Y192469D01*
X397026Y192375D01*
X397055Y192279D01*
X397080Y192183D01*
X397101Y192086D01*
X397119Y191987D01*
X397132Y191889D01*
X397142Y191789D01*
X397148Y191690D01*
X397150Y191590D01*
X397150Y181430D01*
D13*
X379826Y181430D02*
X379553Y181558D01*
X379277Y181680D01*
X378998Y181795D01*
X378717Y181903D01*
X378433Y182005D01*
X378147Y182100D01*
X377859Y182188D01*
X377569Y182270D01*
X377276Y182344D01*
X376983Y182411D01*
X376687Y182472D01*
X376391Y182525D01*
X376093Y182571D01*
X375794Y182611D01*
X375494Y182643D01*
X375193Y182668D01*
X374893Y182686D01*
X374591Y182696D01*
X374290Y182700D01*
X379826Y158570D02*
X379553Y158442D01*
X379277Y158320D01*
X378998Y158205D01*
X378717Y158097D01*
X378433Y157995D01*
X378147Y157900D01*
X377859Y157812D01*
X377569Y157730D01*
X377276Y157656D01*
X376983Y157589D01*
X376687Y157528D01*
X376391Y157475D01*
X376093Y157429D01*
X375794Y157389D01*
X375494Y157357D01*
X375193Y157332D01*
X374893Y157314D01*
X374591Y157304D01*
X374290Y157300D01*
X391090Y181429D02*
X390807Y181834D01*
X390514Y182233D01*
X390212Y182624D01*
X389900Y183008D01*
X389579Y183384D01*
X389249Y183752D01*
X388910Y184112D01*
X388562Y184463D01*
X388206Y184806D01*
X387841Y185141D01*
X387469Y185466D01*
X387089Y185782D01*
X386701Y186089D01*
X386306Y186386D01*
X385903Y186674D01*
X385494Y186951D01*
X385079Y187219D01*
X384656Y187476D01*
X384228Y187723D01*
X383794Y187960D01*
X383354Y188186D01*
X382909Y188401D01*
X382459Y188605D01*
X382003Y188799D01*
X381544Y188981D01*
X381080Y189152D01*
X380612Y189311D01*
X380140Y189459D01*
X379665Y189596D01*
X379186Y189721D01*
X378705Y189834D01*
X378221Y189936D01*
X377735Y190026D01*
X377247Y190104D01*
X376757Y190170D01*
X376265Y190224D01*
X375772Y190266D01*
X375279Y190296D01*
X374785Y190314D01*
X374290Y190320D01*
X305710Y190320D02*
X305216Y190314D01*
X304722Y190296D01*
X304228Y190266D01*
X303736Y190224D01*
X303244Y190170D01*
X302754Y190104D01*
X302266Y190026D01*
X301779Y189936D01*
X301296Y189835D01*
X300814Y189721D01*
X300336Y189596D01*
X299861Y189460D01*
X299389Y189312D01*
X298921Y189152D01*
X298457Y188981D01*
X297997Y188799D01*
X297542Y188606D01*
X297091Y188402D01*
X296646Y188187D01*
X296206Y187961D01*
X295772Y187724D01*
X295344Y187477D01*
X294922Y187220D01*
X294506Y186952D01*
X294097Y186674D01*
X293694Y186387D01*
X293299Y186090D01*
X292911Y185783D01*
X292531Y185467D01*
X292159Y185141D01*
X291794Y184807D01*
X291438Y184464D01*
X291090Y184113D01*
X290751Y183753D01*
X290421Y183385D01*
X290100Y183009D01*
X289788Y182625D01*
X289485Y182234D01*
X289193Y181835D01*
X288909Y181430D01*
X300174Y181430D02*
X300447Y181558D01*
X300723Y181680D01*
X301002Y181795D01*
X301283Y181903D01*
X301567Y182005D01*
X301853Y182100D01*
X302141Y182188D01*
X302431Y182270D01*
X302724Y182344D01*
X303017Y182411D01*
X303313Y182472D01*
X303609Y182525D01*
X303907Y182571D01*
X304206Y182611D01*
X304506Y182643D01*
X304807Y182668D01*
X305107Y182686D01*
X305409Y182696D01*
X305710Y182700D01*
X300174Y158570D02*
X300447Y158442D01*
X300723Y158320D01*
X301002Y158205D01*
X301283Y158097D01*
X301567Y157995D01*
X301853Y157900D01*
X302141Y157812D01*
X302431Y157730D01*
X302724Y157656D01*
X303017Y157589D01*
X303313Y157528D01*
X303609Y157475D01*
X303907Y157429D01*
X304206Y157389D01*
X304506Y157357D01*
X304807Y157332D01*
X305107Y157314D01*
X305409Y157304D01*
X305710Y157300D01*
D11*
X282850Y181430D02*
X282850Y191590D01*
X282852Y191690D01*
X282858Y191789D01*
X282868Y191889D01*
X282881Y191987D01*
X282899Y192086D01*
X282920Y192183D01*
X282945Y192279D01*
X282974Y192375D01*
X283007Y192469D01*
X283043Y192562D01*
X283083Y192653D01*
X283127Y192743D01*
X283174Y192831D01*
X283224Y192917D01*
X283278Y193001D01*
X283335Y193083D01*
X283395Y193162D01*
X283459Y193240D01*
X283525Y193314D01*
X283594Y193386D01*
X283666Y193455D01*
X283740Y193521D01*
X283818Y193585D01*
X283897Y193645D01*
X283979Y193702D01*
X284063Y193756D01*
X284149Y193806D01*
X284237Y193853D01*
X284327Y193897D01*
X284418Y193937D01*
X284511Y193973D01*
X284605Y194006D01*
X284701Y194035D01*
X284797Y194060D01*
X284894Y194081D01*
X284993Y194099D01*
X285091Y194112D01*
X285191Y194122D01*
X285290Y194128D01*
X285390Y194130D01*
D13*
X305710Y149680D02*
X374290Y149680D01*
D11*
X394610Y145870D02*
X285390Y145870D01*
X394610Y145870D02*
X394710Y145872D01*
X394809Y145878D01*
X394909Y145888D01*
X395007Y145901D01*
X395106Y145919D01*
X395203Y145940D01*
X395299Y145965D01*
X395395Y145994D01*
X395489Y146027D01*
X395582Y146063D01*
X395673Y146103D01*
X395763Y146147D01*
X395851Y146194D01*
X395937Y146244D01*
X396021Y146298D01*
X396103Y146355D01*
X396182Y146415D01*
X396260Y146479D01*
X396334Y146545D01*
X396406Y146614D01*
X396475Y146686D01*
X396541Y146760D01*
X396605Y146838D01*
X396665Y146917D01*
X396722Y146999D01*
X396776Y147083D01*
X396826Y147169D01*
X396873Y147257D01*
X396917Y147347D01*
X396957Y147438D01*
X396993Y147531D01*
X397026Y147625D01*
X397055Y147721D01*
X397080Y147817D01*
X397101Y147914D01*
X397119Y148013D01*
X397132Y148111D01*
X397142Y148211D01*
X397148Y148310D01*
X397150Y148410D01*
X285390Y145870D02*
X285290Y145872D01*
X285191Y145878D01*
X285091Y145888D01*
X284993Y145901D01*
X284894Y145919D01*
X284797Y145940D01*
X284701Y145965D01*
X284605Y145994D01*
X284511Y146027D01*
X284418Y146063D01*
X284327Y146103D01*
X284237Y146147D01*
X284149Y146194D01*
X284063Y146244D01*
X283979Y146298D01*
X283897Y146355D01*
X283818Y146415D01*
X283740Y146479D01*
X283666Y146545D01*
X283594Y146614D01*
X283525Y146686D01*
X283459Y146760D01*
X283395Y146838D01*
X283335Y146917D01*
X283278Y146999D01*
X283224Y147083D01*
X283174Y147169D01*
X283127Y147257D01*
X283083Y147347D01*
X283043Y147438D01*
X283007Y147531D01*
X282974Y147625D01*
X282945Y147721D01*
X282920Y147817D01*
X282899Y147914D01*
X282881Y148013D01*
X282868Y148111D01*
X282858Y148211D01*
X282852Y148310D01*
X282850Y148410D01*
X337460Y163650D02*
X337460Y176350D01*
X342540Y176350D01*
X342540Y163650D01*
X337460Y163650D01*
X333650Y163650D02*
X333650Y170000D01*
X333650Y176350D01*
D13*
X333650Y170000D02*
X329840Y170000D01*
D11*
X346350Y170000D02*
X346350Y163650D01*
X346350Y170000D02*
X346350Y176350D01*
D13*
X346350Y170000D02*
X350160Y170000D01*
D17*
X412103Y114654D02*
X414052Y112705D01*
X414052Y108807D01*
X412103Y106858D01*
X404307Y106858D01*
X402358Y108807D01*
X402358Y112705D01*
X404307Y114654D01*
X402358Y118552D02*
X402358Y126348D01*
X402358Y118552D02*
X410154Y126348D01*
X412103Y126348D01*
X414052Y124399D01*
X414052Y120501D01*
X412103Y118552D01*
X313852Y114205D02*
X311903Y116154D01*
X313852Y114205D02*
X313852Y110307D01*
X311903Y108358D01*
X304107Y108358D01*
X302158Y110307D01*
X302158Y114205D01*
X304107Y116154D01*
X302158Y125899D02*
X313852Y125899D01*
X308005Y120052D01*
X308005Y127848D01*
X805458Y430458D02*
X817152Y430458D01*
X817152Y436305D01*
X815203Y438254D01*
X811305Y438254D01*
X809356Y436305D01*
X809356Y430458D01*
X809356Y434356D02*
X805458Y438254D01*
X815203Y442152D02*
X817152Y444101D01*
X817152Y447999D01*
X815203Y449948D01*
X813254Y449948D01*
X811305Y447999D01*
X811305Y446050D01*
X811305Y447999D02*
X809356Y449948D01*
X807407Y449948D01*
X805458Y447999D01*
X805458Y444101D01*
X807407Y442152D01*
X799852Y214770D02*
X788158Y214770D01*
X799852Y214770D02*
X799852Y220617D01*
X797903Y222566D01*
X794005Y222566D01*
X792056Y220617D01*
X792056Y214770D01*
X792056Y218668D02*
X788158Y222566D01*
X788158Y232311D02*
X799852Y232311D01*
X794005Y226464D01*
X794005Y234260D01*
X797252Y47170D02*
X785558Y47170D01*
X797252Y47170D02*
X797252Y53017D01*
X795303Y54966D01*
X791405Y54966D01*
X789456Y53017D01*
X789456Y47170D01*
X789456Y51068D02*
X785558Y54966D01*
X797252Y58864D02*
X797252Y66660D01*
X797252Y58864D02*
X791405Y58864D01*
X793354Y62762D01*
X793354Y64711D01*
X791405Y66660D01*
X787507Y66660D01*
X785558Y64711D01*
X785558Y60813D01*
X787507Y58864D01*
D19*
X650732Y82100D03*
D20*
X652510Y82608D03*
D21*
X653018Y83116D03*
D22*
X653780Y83624D03*
D23*
X689594Y84132D03*
D24*
X654034Y84132D03*
D25*
X688324Y84640D03*
D26*
X654288Y84640D03*
D27*
X687816Y85148D03*
D28*
X654796Y85148D03*
D29*
X687054Y85656D03*
D30*
X654796Y85656D03*
D31*
X687054Y86164D03*
D32*
X654796Y86164D03*
D33*
X687054Y86672D03*
D34*
X654796Y86672D03*
D35*
X687562Y87180D03*
D34*
X654796Y87180D03*
D36*
X670798Y87688D03*
D32*
X688324Y88196D03*
D37*
X654796Y88196D03*
D38*
X671052Y88704D03*
D39*
X671306Y89212D03*
D40*
X671560Y89720D03*
D41*
X671306Y90228D03*
D42*
X671560Y90736D03*
D41*
X671814Y91244D03*
X671814Y91752D03*
X671814Y92260D03*
D42*
X672068Y92768D03*
X672068Y93276D03*
D41*
X672322Y93784D03*
X672322Y94292D03*
D40*
X672576Y94800D03*
D38*
X672576Y95308D03*
X672576Y95816D03*
D36*
X672830Y96324D03*
D43*
X673338Y96832D03*
D44*
X673338Y97340D03*
D45*
X673846Y97848D03*
D33*
X689594Y98356D03*
D46*
X665210Y98356D03*
D47*
X647684Y98356D03*
D48*
X680704Y98864D03*
D49*
X680450Y99372D03*
D50*
X680196Y99880D03*
D51*
X680196Y100388D03*
D52*
X679942Y100896D03*
D53*
X695944Y101404D03*
D28*
X673084Y101404D03*
D54*
X696198Y101912D03*
D55*
X681720Y101912D03*
D56*
X666480Y101912D03*
D47*
X695944Y102420D03*
D28*
X673084Y102420D03*
D31*
X673338Y102928D03*
D57*
X681974Y103436D03*
D56*
X666988Y103436D03*
D31*
X673338Y103944D03*
D26*
X673592Y104452D03*
D58*
X651748Y104452D03*
D53*
X682228Y104960D03*
D56*
X667496Y104960D03*
D59*
X651240Y104960D03*
D31*
X673846Y105468D03*
D19*
X650732Y105468D03*
D26*
X674100Y105976D03*
D25*
X650732Y105976D03*
D26*
X674100Y106484D03*
D60*
X650224Y106484D03*
D61*
X674354Y106992D03*
D20*
X649970Y106992D03*
D62*
X663940Y107500D03*
D63*
X674608Y108008D03*
D64*
X649462Y108008D03*
D65*
X682990Y108516D03*
D66*
X657590Y108516D03*
D67*
X663432Y109024D03*
D68*
X663178Y109532D03*
D65*
X683498Y110040D03*
D69*
X657082Y110040D03*
D70*
X662670Y110548D03*
X662670Y111056D03*
D71*
X662416Y111564D03*
D59*
X683752Y112072D03*
D72*
X656574Y112072D03*
D73*
X662162Y112580D03*
D74*
X661908Y113088D03*
D75*
X662162Y113596D03*
D59*
X684260Y114104D03*
D76*
X656320Y114104D03*
D77*
X661908Y114612D03*
D78*
X661654Y115120D03*
X661654Y115628D03*
D79*
X684514Y116136D03*
D80*
X667242Y116136D03*
D60*
X642604Y116136D03*
D81*
X673338Y116644D03*
D82*
X641842Y116644D03*
D35*
X673846Y117152D03*
D25*
X641588Y117152D03*
D33*
X674354Y117660D03*
D83*
X641334Y117660D03*
D28*
X674608Y118168D03*
D83*
X640826Y118168D03*
D84*
X684768Y118676D03*
D20*
X669782Y118676D03*
D83*
X640826Y118676D03*
D22*
X677148Y119184D03*
D85*
X662416Y119184D03*
D86*
X640572Y119184D03*
D61*
X675370Y119692D03*
D87*
X640826Y119692D03*
D61*
X675878Y120200D03*
D87*
X640826Y120200D03*
D22*
X677656Y120708D03*
D88*
X663178Y120708D03*
D19*
X640572Y120708D03*
D84*
X685276Y121216D03*
D60*
X671052Y121216D03*
D19*
X640572Y121216D03*
D24*
X676386Y121724D03*
D89*
X640826Y121724D03*
D90*
X676640Y122232D03*
D55*
X640572Y122232D03*
D90*
X676640Y122740D03*
D53*
X640572Y122740D03*
D54*
X685530Y123248D03*
D56*
X672068Y123248D03*
D59*
X640572Y123248D03*
D54*
X685530Y123756D03*
D82*
X672322Y123756D03*
D84*
X640572Y123756D03*
D54*
X685530Y124264D03*
D87*
X673338Y124264D03*
D91*
X664956Y124264D03*
D92*
X640572Y124264D03*
D93*
X677402Y124772D03*
D47*
X640572Y124772D03*
D22*
X677656Y125280D03*
D94*
X678672Y125788D03*
D95*
X665718Y125788D03*
D22*
X678164Y126296D03*
D54*
X686038Y126804D03*
D86*
X673592Y126804D03*
D54*
X686038Y127312D03*
D19*
X674100Y127312D03*
D54*
X686038Y127820D03*
D19*
X674100Y127820D03*
D80*
X678926Y128328D03*
X678926Y128836D03*
D96*
X679180Y129344D03*
X679180Y129852D03*
X679180Y130360D03*
X679180Y130868D03*
D21*
X679434Y131376D03*
D96*
X679180Y131884D03*
D80*
X678926Y132392D03*
D94*
X678672Y132900D03*
D97*
X678418Y133408D03*
X678418Y133916D03*
D22*
X678164Y134424D03*
D93*
X677910Y134932D03*
X677910Y135440D03*
D98*
X677656Y135948D03*
D29*
X677910Y136456D03*
X677910Y136964D03*
D99*
X605774Y136964D03*
D24*
X677910Y137472D03*
D23*
X605774Y137472D03*
D63*
X678164Y137980D03*
D92*
X606028Y137980D03*
D63*
X678164Y138488D03*
D100*
X606536Y138488D03*
D95*
X601202Y138488D03*
D63*
X678164Y138996D03*
D53*
X605520Y138996D03*
D61*
X678418Y139504D03*
D89*
X605774Y139504D03*
D61*
X678418Y140012D03*
D19*
X606028Y140012D03*
D61*
X678418Y140520D03*
D86*
X606028Y140520D03*
D61*
X678418Y141028D03*
D83*
X606282Y141028D03*
D61*
X678418Y141536D03*
D82*
X606790Y141536D03*
D61*
X678418Y142044D03*
D56*
X607044Y142044D03*
D26*
X678672Y142552D03*
D60*
X607552Y142552D03*
D61*
X678418Y143060D03*
D101*
X607806Y143060D03*
D61*
X678418Y143568D03*
D20*
X608314Y143568D03*
D61*
X678418Y144076D03*
D20*
X608822Y144076D03*
D26*
X678164Y144584D03*
D64*
X608822Y144584D03*
D31*
X677910Y145092D03*
D27*
X609076Y145092D03*
D28*
X677656Y145600D03*
D96*
X609584Y145600D03*
D28*
X677148Y146108D03*
D79*
X648446Y146108D03*
D80*
X609838Y146108D03*
D33*
X676894Y146616D03*
D102*
X647938Y146616D03*
D94*
X610092Y146616D03*
D103*
X662924Y147124D03*
D97*
X610346Y147124D03*
D104*
X661400Y147632D03*
D22*
X610600Y147632D03*
D105*
X660130Y148140D03*
D22*
X611108Y148140D03*
D43*
X659114Y148648D03*
D93*
X611362Y148648D03*
D106*
X645144Y149156D03*
X645144Y149664D03*
D107*
X645144Y150172D03*
D108*
X644890Y150680D03*
D109*
X645144Y151188D03*
D110*
X645144Y151696D03*
D111*
X644890Y152204D03*
D112*
X644890Y152712D03*
D113*
X644890Y153220D03*
D114*
X644890Y153728D03*
D115*
X644636Y154236D03*
D116*
X644636Y154744D03*
D117*
X644382Y155252D03*
D118*
X644382Y155760D03*
D119*
X644128Y156268D03*
D120*
X643620Y156776D03*
D102*
X672322Y157284D03*
D121*
X628126Y157284D03*
D101*
X673846Y157792D03*
D122*
X627110Y157792D03*
D46*
X675370Y158300D03*
D123*
X626094Y158300D03*
D56*
X676640Y158808D03*
D89*
X658606Y158808D03*
D47*
X639556Y158808D03*
D93*
X621014Y158808D03*
D25*
X678164Y159316D03*
D124*
X664702Y159316D03*
D125*
X652510Y159316D03*
D124*
X637778Y159316D03*
D27*
X618728Y159316D03*
D83*
X678926Y159824D03*
D99*
X667242Y159824D03*
D124*
X649970Y159824D03*
D126*
X636508Y159824D03*
D127*
X616696Y159824D03*
D86*
X680196Y160332D03*
D85*
X669020Y160332D03*
D126*
X648700Y160332D03*
X634984Y160332D03*
D101*
X614410Y160332D03*
D86*
X681212Y160840D03*
D85*
X670544Y160840D03*
D47*
X648192Y160840D03*
D125*
X632698Y160840D03*
D60*
X612632Y160840D03*
D86*
X681720Y161348D03*
D85*
X671560Y161348D03*
D58*
X647684Y161348D03*
D92*
X631428Y161348D03*
D128*
X611616Y161348D03*
D87*
X682482Y161856D03*
D129*
X672576Y161856D03*
D125*
X647430Y161856D03*
D58*
X630920Y161856D03*
D101*
X610854Y161856D03*
D86*
X683244Y162364D03*
D129*
X673084Y162364D03*
D100*
X647176Y162364D03*
D126*
X630920Y162364D03*
D46*
X609838Y162364D03*
D86*
X683752Y162872D03*
D130*
X673846Y162872D03*
D84*
X647176Y162872D03*
D85*
X630412Y162872D03*
D83*
X608822Y162872D03*
D86*
X684260Y163380D03*
D130*
X674354Y163380D03*
D59*
X647176Y163380D03*
D85*
X629904Y163380D03*
D87*
X607806Y163380D03*
D86*
X684768Y163888D03*
D130*
X674862Y163888D03*
D91*
X669528Y163888D03*
D57*
X647430Y163888D03*
D99*
X629142Y163888D03*
D89*
X607298Y163888D03*
D86*
X685276Y164396D03*
D130*
X675370Y164396D03*
X668766Y164396D03*
D19*
X647684Y164396D03*
D126*
X628380Y164396D03*
D57*
X606790Y164396D03*
D86*
X685784Y164904D03*
D91*
X675624Y164904D03*
D88*
X667750Y164904D03*
D25*
X648192Y164904D03*
D124*
X627618Y164904D03*
D53*
X606536Y164904D03*
D86*
X686292Y165412D03*
D130*
X675878Y165412D03*
D26*
X654288Y165412D03*
D23*
X626602Y165412D03*
D59*
X606028Y165412D03*
D83*
X686546Y165920D03*
D88*
X675878Y165920D03*
D61*
X654034Y165920D03*
D23*
X626094Y165920D03*
D84*
X606028Y165920D03*
D83*
X687054Y166428D03*
D85*
X675624Y166428D03*
D31*
X654034Y166428D03*
D58*
X625840Y166428D03*
D54*
X605774Y166428D03*
D83*
X687562Y166936D03*
D47*
X675116Y166936D03*
D35*
X654542Y166936D03*
D23*
X625586Y166936D03*
D100*
X605520Y166936D03*
D25*
X687816Y167444D03*
D131*
X658352Y167444D03*
D47*
X625332Y167444D03*
D132*
X605266Y167444D03*
D83*
X688070Y167952D03*
D133*
X658352Y167952D03*
D47*
X625332Y167952D03*
D125*
X605266Y167952D03*
D83*
X688578Y168460D03*
D69*
X658098Y168460D03*
D124*
X625078Y168460D03*
D58*
X605012Y168460D03*
D129*
X715248Y168968D03*
D25*
X688832Y168968D03*
D69*
X658098Y168968D03*
D124*
X625078Y168968D03*
D47*
X605012Y168968D03*
D132*
X714486Y169476D03*
D25*
X689340Y169476D03*
D134*
X658098Y169476D03*
D126*
X624824Y169476D03*
D124*
X604758Y169476D03*
D65*
X713978Y169984D03*
D25*
X689340Y169984D03*
D134*
X658098Y169984D03*
D126*
X624824Y169984D03*
D88*
X604758Y169984D03*
D19*
X713216Y170492D03*
D82*
X689594Y170492D03*
D135*
X657844Y170492D03*
D99*
X624570Y170492D03*
D25*
X712708Y171000D03*
D82*
X690102Y171000D03*
D72*
X657590Y171000D03*
D95*
X631174Y171000D03*
D99*
X624570Y171000D03*
D56*
X712200Y171508D03*
D82*
X690102Y171508D03*
D136*
X657844Y171508D03*
D130*
X632190Y171508D03*
D99*
X624570Y171508D03*
D101*
X711438Y172016D03*
D82*
X690610Y172016D03*
D121*
X657590Y172016D03*
D129*
X632952Y172016D03*
D85*
X624316Y172016D03*
D129*
X722360Y172524D03*
D127*
X710676Y172524D03*
D56*
X690864Y172524D03*
D121*
X657590Y172524D03*
D88*
X633714Y172524D03*
D85*
X624316Y172524D03*
D135*
X703564Y173032D03*
D49*
X656066Y173032D03*
D85*
X624316Y173032D03*
D99*
X722614Y173540D03*
D137*
X701532Y173540D03*
D138*
X656574Y173540D03*
D85*
X624316Y173540D03*
D135*
X704072Y174048D03*
D63*
X665464Y174048D03*
D132*
X638286Y174048D03*
D99*
X624062Y174048D03*
D135*
X704072Y174556D03*
D93*
X666734Y174556D03*
D47*
X637524Y174556D03*
D99*
X624062Y174556D03*
D134*
X704326Y175064D03*
D94*
X667496Y175064D03*
D85*
X637016Y175064D03*
D99*
X624062Y175064D03*
D134*
X704326Y175572D03*
D21*
X668766Y175572D03*
D129*
X636508Y175572D03*
D99*
X624062Y175572D03*
D134*
X704326Y176080D03*
D102*
X669782Y176080D03*
D91*
X636508Y176080D03*
D99*
X624062Y176080D03*
D139*
X704580Y176588D03*
D128*
X670544Y176588D03*
D95*
X636762Y176588D03*
D99*
X624062Y176588D03*
D54*
X720074Y177096D03*
D33*
X699246Y177096D03*
D46*
X670798Y177096D03*
D95*
X636762Y177096D03*
D126*
X623808Y177096D03*
D69*
X704326Y177604D03*
D25*
X671560Y177604D03*
D140*
X637016Y177604D03*
D124*
X624062Y177604D03*
D141*
X705342Y178112D03*
D130*
X685022Y178112D03*
D86*
X672068Y178112D03*
D140*
X637016Y178112D03*
D124*
X624062Y178112D03*
D123*
X704834Y178620D03*
D130*
X685022Y178620D03*
D19*
X672576Y178620D03*
D140*
X637016Y178620D03*
D47*
X624316Y178620D03*
D142*
X704834Y179128D03*
D130*
X685022Y179128D03*
D55*
X673084Y179128D03*
D140*
X637016Y179128D03*
D58*
X624316Y179128D03*
D143*
X704834Y179636D03*
D130*
X685022Y179636D03*
D53*
X673592Y179636D03*
D125*
X624570Y179636D03*
D144*
X704326Y180144D03*
D130*
X685022Y180144D03*
D65*
X673846Y180144D03*
D132*
X625078Y180144D03*
D95*
X721090Y180652D03*
D32*
X704072Y180652D03*
D130*
X685022Y180652D03*
D84*
X674100Y180652D03*
D100*
X625332Y180652D03*
D144*
X704834Y181160D03*
D130*
X685022Y181160D03*
D100*
X674608Y181160D03*
D59*
X625840Y181160D03*
D34*
X705088Y181668D03*
D130*
X685022Y181668D03*
D132*
X674862Y181668D03*
D57*
X626602Y181668D03*
D32*
X705088Y182176D03*
D130*
X685022Y182176D03*
D92*
X675116Y182176D03*
D87*
X627618Y182176D03*
D35*
X704834Y182684D03*
D130*
X685022Y182684D03*
D58*
X675116Y182684D03*
D145*
X630412Y182684D03*
D33*
X704834Y183192D03*
D129*
X684768Y183192D03*
D47*
X675624Y183192D03*
D94*
X631936Y183192D03*
D28*
X704580Y183700D03*
D130*
X684514Y183700D03*
D124*
X675878Y183700D03*
D98*
X632952Y183700D03*
D26*
X704580Y184208D03*
D130*
X684514Y184208D03*
D99*
X675878Y184208D03*
D63*
X633460Y184208D03*
X704072Y184716D03*
D130*
X684514Y184716D03*
D85*
X676132Y184716D03*
D26*
X633968Y184716D03*
D90*
X703564Y185224D03*
D129*
X684260Y185224D03*
D88*
X676386Y185224D03*
D28*
X634476Y185224D03*
D93*
X703310Y185732D03*
D130*
X684006Y185732D03*
D129*
X676640Y185732D03*
D126*
X648192Y185732D03*
D96*
X630412Y185732D03*
D97*
X702802Y186240D03*
D130*
X684006Y186240D03*
D129*
X677148Y186240D03*
D88*
X649462Y186240D03*
D127*
X628888Y186240D03*
D80*
X701786Y186748D03*
D129*
X683752Y186748D03*
D130*
X677402Y186748D03*
D129*
X650224Y186748D03*
D128*
X628380Y186748D03*
D64*
X701278Y187256D03*
D130*
X683498Y187256D03*
D91*
X677656Y187256D03*
X651240Y187256D03*
D101*
X627618Y187256D03*
D127*
X700516Y187764D03*
D130*
X683498Y187764D03*
X677910Y187764D03*
D95*
X643874Y187764D03*
D60*
X627364Y187764D03*
X699500Y188272D03*
D129*
X683244Y188272D03*
D91*
X678164Y188272D03*
D95*
X643874Y188272D03*
D60*
X626856Y188272D03*
D82*
X698738Y188780D03*
D130*
X682990Y188780D03*
D91*
X678164Y188780D03*
D95*
X643874Y188780D03*
D46*
X626602Y188780D03*
D86*
X697976Y189288D03*
D129*
X682736Y189288D03*
D91*
X678672Y189288D03*
X644128Y189288D03*
D56*
X626348Y189288D03*
D89*
X697722Y189796D03*
D129*
X682228Y189796D03*
D91*
X678672Y189796D03*
X644128Y189796D03*
D56*
X625840Y189796D03*
D57*
X697214Y190304D03*
D130*
X681974Y190304D03*
D91*
X678672Y190304D03*
D99*
X670798Y190304D03*
D130*
X644382Y190304D03*
D82*
X625586Y190304D03*
D65*
X697214Y190812D03*
D129*
X681720Y190812D03*
D95*
X678926Y190812D03*
D23*
X670798Y190812D03*
D91*
X644636Y190812D03*
D56*
X625332Y190812D03*
D59*
X697468Y191320D03*
D129*
X681212Y191320D03*
D95*
X678926Y191320D03*
D132*
X670798Y191320D03*
D130*
X644890Y191320D03*
D82*
X625078Y191320D03*
D79*
X697722Y191828D03*
D129*
X680704Y191828D03*
D100*
X671052Y191828D03*
D130*
X645398Y191828D03*
D56*
X624824Y191828D03*
D84*
X697976Y192336D03*
D130*
X680450Y192336D03*
D79*
X671306Y192336D03*
D129*
X646160Y192336D03*
D56*
X624824Y192336D03*
D84*
X698484Y192844D03*
D130*
X679942Y192844D03*
D59*
X671560Y192844D03*
D129*
X646668Y192844D03*
D46*
X624570Y192844D03*
D84*
X698484Y193352D03*
D129*
X679688Y193352D03*
D53*
X671560Y193352D03*
D88*
X646922Y193352D03*
D46*
X624570Y193352D03*
D84*
X698484Y193860D03*
D86*
X673084Y193860D03*
D88*
X647938Y193860D03*
D60*
X624316Y193860D03*
D84*
X698484Y194368D03*
D87*
X672830Y194368D03*
D85*
X648700Y194368D03*
D60*
X624316Y194368D03*
D84*
X698484Y194876D03*
D19*
X672576Y194876D03*
D85*
X649208Y194876D03*
D128*
X624316Y194876D03*
D84*
X698484Y195384D03*
D19*
X672068Y195384D03*
D85*
X650224Y195384D03*
D128*
X624316Y195384D03*
D84*
X698484Y195892D03*
D19*
X671560Y195892D03*
D95*
X659622Y195892D03*
D124*
X651494Y195892D03*
D127*
X624316Y195892D03*
D84*
X698484Y196400D03*
D19*
X671052Y196400D03*
D79*
X655050Y196400D03*
D126*
X631936Y196400D03*
D57*
X620506Y196400D03*
D84*
X698484Y196908D03*
D87*
X670290Y196908D03*
D125*
X655050Y196908D03*
D126*
X632444Y196908D03*
D84*
X618728Y196908D03*
D54*
X698230Y197416D03*
D65*
X671814Y197416D03*
D88*
X664194Y197416D03*
D85*
X632952Y197416D03*
D125*
X617458Y197416D03*
D54*
X698230Y197924D03*
D79*
X671814Y197924D03*
D88*
X663178Y197924D03*
D85*
X633460Y197924D03*
D47*
X616188Y197924D03*
D100*
X697976Y198432D03*
D84*
X672068Y198432D03*
D85*
X662416Y198432D03*
X633968Y198432D03*
X615172Y198432D03*
D92*
X697976Y198940D03*
D100*
X672068Y198940D03*
D85*
X661400Y198940D03*
X634476Y198940D03*
D91*
X614156Y198940D03*
D125*
X697722Y199448D03*
D92*
X672068Y199448D03*
D140*
X665464Y199448D03*
D85*
X660892Y199448D03*
X634984Y199448D03*
D47*
X697468Y199956D03*
D23*
X671814Y199956D03*
D95*
X665210Y199956D03*
D85*
X659876Y199956D03*
X635492Y199956D03*
D99*
X697214Y200464D03*
D126*
X671560Y200464D03*
D91*
X665464Y200464D03*
D99*
X659114Y200464D03*
D85*
X636000Y200464D03*
D99*
X671306Y200972D03*
D130*
X665718Y200972D03*
D126*
X657844Y200972D03*
D88*
X636762Y200972D03*
D125*
X668766Y201480D03*
D126*
X656828Y201480D03*
D85*
X637524Y201480D03*
D58*
X668512Y201988D03*
D47*
X655812Y201988D03*
D85*
X638540Y201988D03*
D124*
X668258Y202496D03*
D47*
X654796Y202496D03*
D99*
X639302Y202496D03*
X668258Y203004D03*
D125*
X653526Y203004D03*
D99*
X640318Y203004D03*
X667242Y203512D03*
D100*
X652256Y203512D03*
D47*
X642096Y203512D03*
D126*
X665972Y204020D03*
D82*
X647938Y204020D03*
D124*
X664702Y204528D03*
D86*
X648192Y204528D03*
D23*
X663178Y205036D03*
D89*
X648954Y205036D03*
D58*
X661400Y205544D03*
D57*
X649462Y205544D03*
D101*
X654034Y206052D03*
D83*
X654034Y206560D03*
X654542Y207068D03*
D25*
X654796Y207576D03*
X654796Y208084D03*
D99*
X660130Y208592D03*
D100*
X651240Y208592D03*
D88*
X660638Y209100D03*
D132*
X650986Y209100D03*
D91*
X660892Y209608D03*
D125*
X650478Y209608D03*
D58*
X650224Y210116D03*
D23*
X649970Y210624D03*
D47*
X649716Y211132D03*
D126*
X649208Y211640D03*
D99*
X648954Y212148D03*
D85*
X648700Y212656D03*
D88*
X648446Y213164D03*
D130*
X647938Y213672D03*
D91*
X647684Y214180D03*
D140*
X647176Y214688D03*
M02*
