G04 EAGLE Gerber RS-274X export*
G75*
%MOMM*%
%FSLAX34Y34*%
%LPD*%
%INSoldermask Bottom*%
%IPPOS*%
%AMOC8*
5,1,8,0,0,1.08239X$1,22.5*%
G01*
%ADD10C,3.301600*%
%ADD11R,0.762000X2.133600*%
%ADD12R,1.320800X2.336800*%
%ADD13R,3.701600X2.301600*%
%ADD14C,1.727200*%
%ADD15C,1.981200*%
%ADD16R,1.101600X1.201600*%
%ADD17R,0.660400X1.371600*%
%ADD18R,1.371600X0.660400*%
%ADD19R,2.701600X2.301600*%
%ADD20C,1.509600*%
%ADD21C,1.409600*%
%ADD22C,2.801600*%
%ADD23C,1.422400*%
%ADD24R,5.435600X2.032000*%
%ADD25C,1.609600*%
%ADD26C,1.301600*%
%ADD27R,1.201600X1.101600*%
%ADD28P,1.759533X8X202.500000*%
%ADD29P,1.759533X8X22.500000*%


D10*
X780000Y165000D03*
X780000Y335000D03*
X220000Y165000D03*
X220000Y335000D03*
D11*
X307850Y385066D03*
X307850Y446534D03*
X295150Y385066D03*
X282450Y385066D03*
X295150Y446534D03*
X282450Y446534D03*
X269750Y385066D03*
X269750Y446534D03*
D12*
X130186Y387888D03*
X153300Y387888D03*
X176414Y387888D03*
D13*
X153300Y325910D03*
D14*
X303100Y315500D03*
X303100Y340900D03*
X328500Y340900D03*
X328500Y315500D03*
X277700Y315500D03*
X277700Y340900D03*
D15*
X303200Y482500D03*
X277800Y482500D03*
X252400Y482500D03*
X138300Y483000D03*
X163700Y483000D03*
D16*
X192500Y287400D03*
X175500Y287400D03*
X475700Y191600D03*
X492700Y191600D03*
X555100Y192400D03*
X538100Y192400D03*
D17*
X436500Y219274D03*
X428500Y219274D03*
X420500Y219274D03*
X412500Y219274D03*
X404500Y219274D03*
X396500Y219274D03*
X388500Y219274D03*
X380500Y219274D03*
D18*
X365574Y234200D03*
X365574Y242200D03*
X365574Y250200D03*
X365574Y258200D03*
X365574Y266200D03*
X365574Y274200D03*
X365574Y282200D03*
X365574Y290200D03*
D17*
X380500Y305126D03*
X388500Y305126D03*
X396500Y305126D03*
X404500Y305126D03*
X412500Y305126D03*
X420500Y305126D03*
X428500Y305126D03*
X436500Y305126D03*
D18*
X451426Y290200D03*
X451426Y282200D03*
X451426Y274200D03*
X451426Y266200D03*
X451426Y258200D03*
X451426Y250200D03*
X451426Y242200D03*
X451426Y234200D03*
D16*
X370000Y361500D03*
X370000Y378500D03*
D19*
X95000Y360000D03*
X45000Y360000D03*
D20*
X725000Y408500D03*
X725000Y431500D03*
X725000Y454500D03*
X725000Y385500D03*
D21*
X25000Y454500D03*
X25000Y408500D03*
D22*
X610000Y420000D03*
X140000Y420000D03*
D20*
X725000Y238500D03*
X725000Y261500D03*
X725000Y284500D03*
X725000Y215500D03*
D21*
X25000Y284500D03*
X25000Y238500D03*
D22*
X610000Y250000D03*
X140000Y250000D03*
D20*
X725000Y68500D03*
X725000Y91500D03*
X725000Y114500D03*
X725000Y45500D03*
D21*
X25000Y114500D03*
X25000Y68500D03*
D22*
X610000Y80000D03*
X140000Y80000D03*
D23*
X81104Y141600D02*
X67896Y141600D01*
X67896Y167000D02*
X81104Y167000D01*
X81104Y192400D02*
X67896Y192400D01*
X144096Y192400D02*
X157304Y192400D01*
X157304Y141600D02*
X144096Y141600D01*
X144096Y167000D02*
X157304Y167000D01*
D24*
X291740Y170000D03*
X388260Y170000D03*
D16*
X390000Y111500D03*
X390000Y128500D03*
X290000Y111500D03*
X290000Y128500D03*
D25*
X960400Y381900D03*
X960400Y458100D03*
X909600Y458100D03*
X909600Y381900D03*
D21*
X858800Y458100D03*
X858800Y432700D03*
X858800Y407300D03*
X858800Y381900D03*
D26*
X833400Y458100D03*
X985800Y381900D03*
D25*
X960400Y211900D03*
X960400Y288100D03*
X909600Y288100D03*
X909600Y211900D03*
D21*
X858800Y288100D03*
X858800Y262700D03*
X858800Y237300D03*
X858800Y211900D03*
D26*
X833400Y288100D03*
X985800Y211900D03*
D25*
X960400Y41900D03*
X960400Y118100D03*
X909600Y118100D03*
X909600Y41900D03*
D21*
X858800Y118100D03*
X858800Y92700D03*
X858800Y67300D03*
X858800Y41900D03*
D26*
X833400Y118100D03*
X985800Y41900D03*
D27*
X794000Y431500D03*
X794000Y448500D03*
X814000Y236900D03*
X814000Y219900D03*
X810000Y68500D03*
X810000Y51500D03*
D28*
X528100Y103100D03*
X502700Y103100D03*
X477300Y103100D03*
X451900Y103100D03*
X528100Y128500D03*
X502700Y128500D03*
X477300Y128500D03*
X451900Y128500D03*
D29*
X451900Y459900D03*
X477300Y459900D03*
X502700Y459900D03*
X528100Y459900D03*
X451900Y434500D03*
X477300Y434500D03*
X502700Y434500D03*
X528100Y434500D03*
M02*
